<svg width="23" height="26" viewBox="0 0 23 26" fill="none" xmlns="http://www.w3.org/2000/svg">
<path d="M12.4505 0.490179C12.0061 0.353503 11.5309 0.353503 11.0865 0.490179L7.1052 1.71418C5.05955 2.34298 3.11679 3.26742 1.33853 4.45818C0.207866 5.21418 0.743866 6.97818 2.10387 6.97818H21.4319C22.7919 6.97818 23.3279 5.21418 22.1985 4.45818C20.4199 3.26732 18.4766 2.34288 16.4305 1.71418L12.4505 0.490179ZM1.43453 24.9782C1.43453 24.713 1.53989 24.4586 1.72743 24.2711C1.91496 24.0835 2.16932 23.9782 2.43453 23.9782H21.1012C21.3664 23.9782 21.6208 24.0835 21.8083 24.2711C21.9958 24.4586 22.1012 24.713 22.1012 24.9782C22.1012 25.2434 21.9958 25.4978 21.8083 25.6853C21.6208 25.8728 21.3664 25.9782 21.1012 25.9782H2.43453C2.16932 25.9782 1.91496 25.8728 1.72743 25.6853C1.53989 25.4978 1.43453 25.2434 1.43453 24.9782ZM4.1012 19.6448C4.1012 19.9101 4.20656 20.1644 4.39409 20.352C4.58163 20.5395 4.83598 20.6448 5.1012 20.6448C5.36642 20.6448 5.62077 20.5395 5.80831 20.352C5.99584 20.1644 6.1012 19.9101 6.1012 19.6448V11.6448C6.1012 11.3796 5.99584 11.1253 5.80831 10.9377C5.62077 10.7502 5.36642 10.6448 5.1012 10.6448C4.83598 10.6448 4.58163 10.7502 4.39409 10.9377C4.20656 11.1253 4.1012 11.3796 4.1012 11.6448V19.6448ZM11.7679 20.6448C11.5026 20.6448 11.2483 20.5395 11.0608 20.352C10.8732 20.1644 10.7679 19.9101 10.7679 19.6448V11.6448C10.7679 11.3796 10.8732 11.1253 11.0608 10.9377C11.2483 10.7502 11.5026 10.6448 11.7679 10.6448C12.0331 10.6448 12.2874 10.7502 12.475 10.9377C12.6625 11.1253 12.7679 11.3796 12.7679 11.6448V19.6448C12.7679 19.9101 12.6625 20.1644 12.475 20.352C12.2874 20.5395 12.0331 20.6448 11.7679 20.6448ZM17.4345 19.6448C17.4345 19.9101 17.5399 20.1644 17.7274 20.352C17.915 20.5395 18.1693 20.6448 18.4345 20.6448C18.6997 20.6448 18.9541 20.5395 19.1416 20.352C19.3292 20.1644 19.4345 19.9101 19.4345 19.6448V11.6448C19.4345 11.3796 19.3292 11.1253 19.1416 10.9377C18.9541 10.7502 18.6997 10.6448 18.4345 10.6448C18.1693 10.6448 17.915 10.7502 17.7274 10.9377C17.5399 11.1253 17.4345 11.3796 17.4345 11.6448V19.6448Z" fill="white" fill-opacity="0.49"/>
</svg>
