<svg width="19" height="15" viewBox="0 0 19 15" fill="none" xmlns="http://www.w3.org/2000/svg">
<path d="M7.3231 0.115685C7.25136 0.115314 7.18119 0.115462 7.11202 0.116798C6.28084 0.133015 5.63017 0.272286 5.18931 0.476314C4.60149 0.748325 4.41049 1.05997 4.45528 1.42724C4.5085 1.86476 4.95496 2.31761 5.84336 2.67159C6.73176 3.02562 8.00806 3.25458 9.50902 3.29551C10.9802 3.33567 12.4112 3.26204 13.3522 3.01255C13.8227 2.88779 14.1617 2.71382 14.3193 2.54869C14.4769 2.38355 14.515 2.26643 14.411 1.98388C14.3316 1.76865 14.075 1.51842 13.6456 1.29513C13.216 1.07173 12.6355 0.878282 11.9918 0.72105C10.7051 0.406733 9.16632 0.232876 8.00257 0.143517H8.00146C7.77571 0.126313 7.54942 0.11703 7.32302 0.115685H7.3231ZM4.63961 2.8142C4.85024 4.34619 5.02228 5.92757 4.86004 7.60243C4.86241 7.83566 4.9534 8.01827 5.14986 8.20898C5.3678 8.4205 5.72506 8.61703 6.17853 8.77148C7.08549 9.08034 8.36294 9.22199 9.6274 9.20752C10.8918 9.19305 12.1507 9.02412 13.0194 8.75404C13.4538 8.61904 13.7894 8.45383 13.9646 8.30762C14.0631 8.22534 14.1088 8.17476 14.1245 8.12901C13.8664 6.59802 13.9721 5.02622 14.2139 3.44506C14.0088 3.54029 13.7795 3.61688 13.5309 3.68282C12.4591 3.96701 10.9953 4.03006 9.49058 3.98898C7.93069 3.94641 6.58948 3.71466 5.58712 3.31522C5.23031 3.17309 4.90935 3.00658 4.63972 2.81424L4.63961 2.8142ZM4.13403 7.8564C3.74872 7.97515 3.38783 8.10697 3.05556 8.25191C1.48887 8.93528 0.600771 9.86673 0.534419 10.8055C0.494193 11.3741 0.675435 11.8512 1.06672 12.2945C1.45796 12.7377 2.07067 13.1329 2.86303 13.4484C4.44783 14.0793 6.73384 14.3882 9.28184 14.303C11.7729 14.2197 14.0256 13.9134 15.6171 13.3649C16.4128 13.0906 17.0406 12.7541 17.4494 12.3815C17.8581 12.0087 18.0524 11.6222 18.0524 11.1591C18.0524 10.6961 17.8464 10.236 17.4273 9.7803C17.0081 9.3246 16.378 8.88782 15.5834 8.51279C15.3405 8.39849 15.0934 8.29364 14.8424 8.19848C14.9199 8.60853 15.0244 9.01321 15.1636 9.41151C15.3262 9.87686 15.1936 10.3634 14.8875 10.7114C14.5815 11.0596 14.1303 11.3157 13.5876 11.5256C12.5022 11.9453 11.0274 12.1697 9.5438 12.2017C8.06024 12.2336 6.57727 12.0737 5.47223 11.6682C4.91967 11.4655 4.45491 11.2029 4.13974 10.8309C3.82454 10.4589 3.68961 9.95178 3.82776 9.43585C3.97127 8.89999 4.06979 8.37441 4.13392 7.85637L4.13403 7.8564ZM4.69883 8.73552C4.64282 9.03127 4.57589 9.32485 4.49818 9.61565C4.41172 9.93857 4.47221 10.1505 4.66863 10.3822C4.86493 10.614 5.2272 10.8401 5.71114 11.0177C6.67906 11.3728 8.10692 11.5388 9.52877 11.5082C10.9506 11.4775 12.3756 11.2508 13.3383 10.8785C13.8196 10.6923 14.1801 10.4671 14.3669 10.2546C14.5538 10.042 14.5963 9.88829 14.5096 9.63995C14.4279 9.40568 14.3559 9.16813 14.2939 8.9279C14.0115 9.13022 13.6493 9.28415 13.2247 9.41611C12.2556 9.71736 10.9551 9.8858 9.63546 9.90087C8.31596 9.91594 6.98518 9.77982 5.95473 9.42884C5.45538 9.25888 5.02358 9.0386 4.69876 8.73541L4.69883 8.73552Z" fill="#00B11C"/>
</svg>
